<mxfile host="Electron" agent="Mozilla/5.0 (X11; Linux x86_64) AppleWebKit/537.36 (KHTML, like Gecko) draw.io/24.7.8 Chrome/128.0.6613.137 Electron/32.1.1 Safari/537.36" version="24.7.8">
  <diagram name="Page-1" id="tNlZ_B1Xtwc_-1t42T3_">
    <mxGraphModel dx="989" dy="606" grid="1" gridSize="10" guides="1" tooltips="1" connect="1" arrows="1" fold="1" page="1" pageScale="1" pageWidth="827" pageHeight="1169" math="0" shadow="0">
      <root>
        <mxCell id="0" />
        <mxCell id="1" parent="0" />
        <mxCell id="qqlKOgmn8acJmBSWf8BY-1" value="Servo&amp;nbsp;&lt;div&gt;&lt;font size=&quot;1&quot; style=&quot;&quot;&gt;&lt;i style=&quot;font-size: 9px;&quot;&gt;Channel 1&lt;/i&gt;&lt;/font&gt;&lt;/div&gt;" style="rounded=1;whiteSpace=wrap;html=1;fillColor=#b1ddf0;strokeColor=#10739e;" vertex="1" parent="1">
          <mxGeometry x="240" y="440" width="90" height="40" as="geometry" />
        </mxCell>
        <mxCell id="qqlKOgmn8acJmBSWf8BY-2" value="Servo&amp;nbsp;&lt;div&gt;&lt;font size=&quot;1&quot; style=&quot;&quot;&gt;&lt;i style=&quot;font-size: 9px;&quot;&gt;Channel 2&lt;/i&gt;&lt;/font&gt;&lt;/div&gt;" style="rounded=1;whiteSpace=wrap;html=1;fillColor=#b1ddf0;strokeColor=#10739e;" vertex="1" parent="1">
          <mxGeometry x="240" y="490" width="90" height="40" as="geometry" />
        </mxCell>
        <mxCell id="qqlKOgmn8acJmBSWf8BY-3" value="Servo&amp;nbsp;&lt;div&gt;&lt;font size=&quot;1&quot; style=&quot;&quot;&gt;&lt;i style=&quot;font-size: 9px;&quot;&gt;Channel 3&lt;/i&gt;&lt;/font&gt;&lt;/div&gt;" style="rounded=1;whiteSpace=wrap;html=1;fillColor=#b1ddf0;strokeColor=#10739e;" vertex="1" parent="1">
          <mxGeometry x="240" y="565" width="90" height="40" as="geometry" />
        </mxCell>
        <mxCell id="qqlKOgmn8acJmBSWf8BY-8" style="edgeStyle=orthogonalEdgeStyle;rounded=0;orthogonalLoop=1;jettySize=auto;html=1;exitX=0;exitY=0.5;exitDx=0;exitDy=0;entryX=1;entryY=0.5;entryDx=0;entryDy=0;" edge="1" parent="1" source="qqlKOgmn8acJmBSWf8BY-4" target="qqlKOgmn8acJmBSWf8BY-1">
          <mxGeometry relative="1" as="geometry" />
        </mxCell>
        <mxCell id="qqlKOgmn8acJmBSWf8BY-4" value="Left Analog&amp;nbsp;&lt;div&gt;&lt;font size=&quot;1&quot;&gt;&lt;i&gt;Y axis&lt;/i&gt;&lt;/font&gt;&lt;/div&gt;" style="rounded=1;whiteSpace=wrap;html=1;fillColor=#fad7ac;strokeColor=#b46504;" vertex="1" parent="1">
          <mxGeometry x="414" y="440" width="90" height="40" as="geometry" />
        </mxCell>
        <mxCell id="qqlKOgmn8acJmBSWf8BY-9" style="edgeStyle=orthogonalEdgeStyle;rounded=0;orthogonalLoop=1;jettySize=auto;html=1;exitX=0;exitY=0.5;exitDx=0;exitDy=0;entryX=1;entryY=0.5;entryDx=0;entryDy=0;" edge="1" parent="1" source="qqlKOgmn8acJmBSWf8BY-5" target="qqlKOgmn8acJmBSWf8BY-2">
          <mxGeometry relative="1" as="geometry" />
        </mxCell>
        <mxCell id="qqlKOgmn8acJmBSWf8BY-5" value="Left Analog&amp;nbsp;&lt;div&gt;&lt;font size=&quot;1&quot;&gt;&lt;i&gt;X axis&lt;/i&gt;&lt;/font&gt;&lt;/div&gt;" style="rounded=1;whiteSpace=wrap;html=1;fillColor=#fad7ac;strokeColor=#b46504;" vertex="1" parent="1">
          <mxGeometry x="414" y="490" width="90" height="40" as="geometry" />
        </mxCell>
        <mxCell id="qqlKOgmn8acJmBSWf8BY-10" style="edgeStyle=orthogonalEdgeStyle;rounded=0;orthogonalLoop=1;jettySize=auto;html=1;exitX=0;exitY=0.5;exitDx=0;exitDy=0;entryX=1;entryY=0.25;entryDx=0;entryDy=0;" edge="1" parent="1" source="qqlKOgmn8acJmBSWf8BY-6" target="qqlKOgmn8acJmBSWf8BY-3">
          <mxGeometry relative="1" as="geometry" />
        </mxCell>
        <mxCell id="qqlKOgmn8acJmBSWf8BY-6" value="Brake Trigger" style="rounded=1;whiteSpace=wrap;html=1;fillColor=#fad7ac;strokeColor=#b46504;" vertex="1" parent="1">
          <mxGeometry x="414" y="540" width="90" height="40" as="geometry" />
        </mxCell>
        <mxCell id="qqlKOgmn8acJmBSWf8BY-11" style="edgeStyle=orthogonalEdgeStyle;rounded=0;orthogonalLoop=1;jettySize=auto;html=1;exitX=0;exitY=0.5;exitDx=0;exitDy=0;entryX=1;entryY=0.75;entryDx=0;entryDy=0;" edge="1" parent="1" source="qqlKOgmn8acJmBSWf8BY-7" target="qqlKOgmn8acJmBSWf8BY-3">
          <mxGeometry relative="1" as="geometry" />
        </mxCell>
        <mxCell id="qqlKOgmn8acJmBSWf8BY-7" value="Throttle Trigger" style="rounded=1;whiteSpace=wrap;html=1;fillColor=#fad7ac;strokeColor=#b46504;" vertex="1" parent="1">
          <mxGeometry x="414" y="590" width="90" height="40" as="geometry" />
        </mxCell>
        <mxCell id="qqlKOgmn8acJmBSWf8BY-20" style="edgeStyle=orthogonalEdgeStyle;rounded=0;orthogonalLoop=1;jettySize=auto;html=1;exitX=1;exitY=0.5;exitDx=0;exitDy=0;entryX=0;entryY=0.5;entryDx=0;entryDy=0;" edge="1" parent="1" source="qqlKOgmn8acJmBSWf8BY-12" target="qqlKOgmn8acJmBSWf8BY-16">
          <mxGeometry relative="1" as="geometry" />
        </mxCell>
        <mxCell id="qqlKOgmn8acJmBSWf8BY-12" value="D-Pad Up" style="rounded=1;whiteSpace=wrap;html=1;fillColor=#fad7ac;strokeColor=#b46504;" vertex="1" parent="1">
          <mxGeometry x="520" y="440" width="90" height="40" as="geometry" />
        </mxCell>
        <mxCell id="qqlKOgmn8acJmBSWf8BY-21" style="edgeStyle=orthogonalEdgeStyle;rounded=0;orthogonalLoop=1;jettySize=auto;html=1;exitX=1;exitY=0.5;exitDx=0;exitDy=0;entryX=0;entryY=0.5;entryDx=0;entryDy=0;" edge="1" parent="1" source="qqlKOgmn8acJmBSWf8BY-13" target="qqlKOgmn8acJmBSWf8BY-18">
          <mxGeometry relative="1" as="geometry" />
        </mxCell>
        <mxCell id="qqlKOgmn8acJmBSWf8BY-13" value="D-Pad Down" style="rounded=1;whiteSpace=wrap;html=1;fillColor=#fad7ac;strokeColor=#b46504;" vertex="1" parent="1">
          <mxGeometry x="520" y="490" width="90" height="40" as="geometry" />
        </mxCell>
        <mxCell id="qqlKOgmn8acJmBSWf8BY-22" style="edgeStyle=orthogonalEdgeStyle;rounded=0;orthogonalLoop=1;jettySize=auto;html=1;exitX=1;exitY=0.5;exitDx=0;exitDy=0;entryX=0;entryY=0.5;entryDx=0;entryDy=0;" edge="1" parent="1" source="qqlKOgmn8acJmBSWf8BY-14" target="qqlKOgmn8acJmBSWf8BY-19">
          <mxGeometry relative="1" as="geometry" />
        </mxCell>
        <mxCell id="qqlKOgmn8acJmBSWf8BY-14" value="A Button" style="rounded=1;whiteSpace=wrap;html=1;fillColor=#fad7ac;strokeColor=#b46504;" vertex="1" parent="1">
          <mxGeometry x="520" y="540" width="90" height="40" as="geometry" />
        </mxCell>
        <mxCell id="qqlKOgmn8acJmBSWf8BY-16" value="Max Speed Increase" style="rounded=1;whiteSpace=wrap;html=1;fillColor=#b1ddf0;strokeColor=#10739e;" vertex="1" parent="1">
          <mxGeometry x="690" y="440" width="90" height="40" as="geometry" />
        </mxCell>
        <mxCell id="qqlKOgmn8acJmBSWf8BY-18" value="Max Speed Decrease" style="rounded=1;whiteSpace=wrap;html=1;fillColor=#b1ddf0;strokeColor=#10739e;" vertex="1" parent="1">
          <mxGeometry x="690" y="490" width="90" height="40" as="geometry" />
        </mxCell>
        <mxCell id="qqlKOgmn8acJmBSWf8BY-19" value="Brake" style="rounded=1;whiteSpace=wrap;html=1;fillColor=#b1ddf0;strokeColor=#10739e;" vertex="1" parent="1">
          <mxGeometry x="690" y="540" width="90" height="40" as="geometry" />
        </mxCell>
        <mxCell id="qqlKOgmn8acJmBSWf8BY-23" value="" style="shape=curlyBracket;whiteSpace=wrap;html=1;rounded=1;flipH=1;labelPosition=right;verticalLabelPosition=middle;align=left;verticalAlign=middle;rotation=-90;" vertex="1" parent="1">
          <mxGeometry x="495" y="315" width="30" height="200" as="geometry" />
        </mxCell>
        <mxCell id="qqlKOgmn8acJmBSWf8BY-24" value="Gamepad Events" style="text;html=1;align=center;verticalAlign=middle;resizable=0;points=[];autosize=1;strokeColor=none;fillColor=none;" vertex="1" parent="1">
          <mxGeometry x="450" y="370" width="120" height="30" as="geometry" />
        </mxCell>
        <mxCell id="qqlKOgmn8acJmBSWf8BY-25" value="" style="shape=curlyBracket;whiteSpace=wrap;html=1;rounded=1;flipH=1;labelPosition=right;verticalLabelPosition=middle;align=left;verticalAlign=middle;rotation=-90;" vertex="1" parent="1">
          <mxGeometry x="271.25" y="363.75" width="30" height="102.5" as="geometry" />
        </mxCell>
        <mxCell id="qqlKOgmn8acJmBSWf8BY-26" value="Reciever Actions" style="text;html=1;align=center;verticalAlign=middle;resizable=0;points=[];autosize=1;strokeColor=none;fillColor=none;" vertex="1" parent="1">
          <mxGeometry x="230" y="370" width="110" height="30" as="geometry" />
        </mxCell>
        <mxCell id="qqlKOgmn8acJmBSWf8BY-28" value="" style="shape=curlyBracket;whiteSpace=wrap;html=1;rounded=1;flipH=1;labelPosition=right;verticalLabelPosition=middle;align=left;verticalAlign=middle;rotation=-90;" vertex="1" parent="1">
          <mxGeometry x="721.25" y="363.75" width="30" height="102.5" as="geometry" />
        </mxCell>
        <mxCell id="qqlKOgmn8acJmBSWf8BY-29" value="Reciever Actions" style="text;html=1;align=center;verticalAlign=middle;resizable=0;points=[];autosize=1;strokeColor=none;fillColor=none;" vertex="1" parent="1">
          <mxGeometry x="680" y="370" width="110" height="30" as="geometry" />
        </mxCell>
      </root>
    </mxGraphModel>
  </diagram>
</mxfile>
